<svg xmlns="http://www.w3.org/2000/svg" viewBox="0 0 512 512">
<defs><radialGradient id="r" cx=".3" cy=".2"><stop offset="0" stop-color="#ff6969"/><stop offset=".58" stop-color="#f21d22"/><stop offset="1" stop-color="#b9000b"/></radialGradient><radialGradient id="w" cx=".3" cy=".25"><stop offset="0" stop-color="#fff"/><stop offset=".7" stop-color="#f8f8fa"/><stop offset="1" stop-color="#c8d0e4"/></radialGradient></defs>
<circle cx="256" cy="256" r="244" fill="url(#w)"/><path d="M15 240A244 244 0 0 1 497 240H348a96 96 0 0 0-184 0Z" fill="url(#r)"/>
<path d="M17 240h149a96 96 0 0 1 180 0h149v48H347a96 96 0 0 1-182 0H17Z" fill="#20232a"/>
<circle cx="256" cy="264" r="92" fill="#20232a"/><circle cx="256" cy="264" r="70" fill="#f7f7f7" stroke="#d20b18" stroke-width="8"/>
<ellipse cx="140" cy="105" rx="48" ry="28" transform="rotate(-28 140 105)" fill="#fff" opacity=".78"/>
<text x="256" y="288" text-anchor="middle" font-family="Brush Script MT,cursive" font-size="88" font-style="italic" fill="#d20b18">Ari</text>
</svg>